<svg xmlns="http://www.w3.org/2000/svg" viewBox="0 0 32 32">
  <rect width="32" height="32" rx="7" fill="#C05234"/>
  <g transform="translate(4.01,24.66) scale(0.02211,-0.02211)">
    <path d="M109 18Q86 18 54.0 56.5Q22 95 22.0 119.0Q22 143 46 218Q120 448 125 621Q91 657 91 678Q91 711 169.5 740.5Q248 770 319 770Q439 770 508.5 714.0Q578 658 578 571Q578 460 469.5 370.0Q361 280 196 247Q149 78 134.5 48.0Q120 18 109 18ZM436 568Q436 600 413.0 620.5Q390 641 351.0 641.0Q312 641 243 604Q263 569 263 541Q263 486 234 378Q324 414 380.0 464.5Q436 515 436 568Z" fill="#FAFAF8"/>
    <g transform="translate(505.1,0)">
      <path d="M439 747Q467 747 500.0 697.5Q533 648 533.0 616.0Q533 584 520 584Q514 584 494.5 588.0Q475 592 461 592Q411 592 344.0 528.0Q277 464 229.5 375.0Q182 286 182 221Q182 189 192.0 174.5Q202 160 228 160Q297 160 368.0 181.0Q439 202 485.0 223.5Q531 245 537.5 245.0Q544 245 550.5 233.5Q557 222 557 206Q557 172 503.0 125.5Q449 79 372.5 46.0Q296 13 234.0 13.0Q172 13 103.5 88.0Q35 163 35 231Q35 326 96.0 447.5Q157 569 253.5 658.0Q350 747 439 747Z" fill="#FAFAF8"/>
    </g>
  </g>
</svg>